<svg xmlns="http://www.w3.org/2000/svg" viewBox="0 0 240 240" role="img" aria-label="น้องสนาม / ชวนก๊วน"><title>น้องสนาม / ชวนก๊วน</title><g fill="none" stroke="#0a7a4f" stroke-width="24" stroke-linecap="butt" stroke-linejoin="round"><path d="M46 101 Q58 134 83 112 Q98 96 112 113 Q131 139 154 124"/><path d="M103 116 Q99 146 78 164 L57 181"/><path d="M98 143 Q120 159 127 187"/></g><circle cx="112" cy="69" r="15" fill="#076140"/><path d="M101 63 Q112 58 123 63" stroke="#bfec33" stroke-width="3.5" fill="none"/><g transform="translate(154 124) rotate(30)" fill="none" stroke="#076140" stroke-linecap="round"><path d="M0 0V-35" stroke-width="4"/><ellipse cy="-58" rx="14" ry="21" fill="#bfec33" stroke-width="4"/><path d="M-9 -70H9 M-12 -62H12 M-12 -54H12 M-9 -46H9 M-5 -77V-39 M3 -78V-38" stroke-width="1.4" opacity=".7"/><path d="M0 1V-12" stroke-width="7"/></g></svg>