<svg xmlns="http://www.w3.org/2000/svg" viewBox="0 0 240 240" role="img" aria-label="น้องสนาม / ดีใจด้วยกัน"><title>น้องสนาม / ดีใจด้วยกัน</title><g fill="none" stroke="#0a7a4f" stroke-width="24" stroke-linecap="butt" stroke-linejoin="round"><path d="M48 71 Q61 118 92 112 Q126 134 155 89"/><path d="M103 116 Q91 144 87 164 L54 183"/><path d="M96 143 Q125 153 141 180"/></g><circle cx="107" cy="65" r="15" fill="#076140"/><path d="M96 59 Q107 54 118 59" stroke="#bfec33" stroke-width="3.5" fill="none"/><g transform="translate(155 89) rotate(35)" fill="none" stroke="#076140" stroke-linecap="round"><path d="M0 0V-35" stroke-width="4"/><ellipse cy="-58" rx="14" ry="21" fill="#bfec33" stroke-width="4"/><path d="M-9 -70H9 M-12 -62H12 M-12 -54H12 M-9 -46H9 M-5 -77V-39 M3 -78V-38" stroke-width="1.4" opacity=".7"/><path d="M0 1V-12" stroke-width="7"/></g></svg>